<?xml version="1.0" encoding="utf-8"?>
<!-- Generator: Adobe Illustrator 19.0.0, SVG Export Plug-In . SVG Version: 6.00 Build 0)  -->
<svg version="1.1" id="Layer_1" xmlns="http://www.w3.org/2000/svg" xmlns:xlink="http://www.w3.org/1999/xlink" x="0px" y="0px"
	 viewBox="0 0 595.3 841.9" style="enable-background:new 0 0 595.3 841.9;" xml:space="preserve">
<style type="text/css">
	.st0{fill:#32A048;}
	.st1{fill:#291A15;}
	.st2{fill:#C82127;}
	.st3{fill:none;stroke:#000000;stroke-width:2;stroke-miterlimit:10;}
</style>
<path id="XMLID_21_" class="st0" d="M158.6,218.9c-3.1,0.7-6.3,0.4-9.2-0.7l0,0c-4.9-1.8-9.1-5.9-10.9-11.1
	c-2.9-8.4,1.5-16.8,9.7-18.7c8.2-1.9,17.2,3.4,20.1,11.8C171.2,208.6,166.8,217,158.6,218.9z"/>
<path id="XMLID_20_" class="st0" d="M103.9,200.5c8.3,2.3,18.2,6.5,29.6,16.4c2.2,1.9,11.2,10.4,18.2,14c0.1,0.1,0.2,0.1,0.3,0.1
	c1.3,0.7,2.6,1.3,3.7,1.8c0.1,0.1,0.2,0.1,0.4,0.1c8.2,3.2,13.6,1.7,17.1-1.1c5.6-5.4,7.6-13.7,7.9-21c0-1,0.1-2,0-3l-1-12
	c0,0,0.2,1,0.4,2.6c-0.1-1.2-0.2-1.9-0.2-1.9c20,51.7-6.8,102.3-42.1,129.9C164.7,289.4,149.4,222.7,103.9,200.5z"/>
<path id="XMLID_19_" class="st1" d="M109.1,246.7c-1.8,1.5-4,2.3-6.4,2.6l0,0c-4,0.5-8.4-0.7-11.6-3.4c-5.2-4.4-5.6-11.1-0.9-15
	c4.8-3.9,12.8-3.6,18.1,0.8C113.4,236.1,113.8,242.8,109.1,246.7z"/>
<path id="XMLID_18_" class="st1" d="M64.5,254c6.4-1.3,14.7-1.9,26.2,0.6c2.2,0.5,11.5,2.8,17.7,2.9c0.1,0,0.2,0,0.2,0
	c1.2,0,2.2-0.1,3.2-0.1c0.1,0,0.2,0,0.3,0c6.7-0.6,9.8-3.4,11-6.3c1.6-5.3-0.3-11.1-2.9-15.8c-0.4-0.7-0.8-1.3-1.2-1.9l-5.4-7.3
	c0,0,0.5,0.5,1.3,1.5c-0.5-0.7-0.9-1.1-0.9-1.1c33.7,25.9,32,71.1,19.2,100.1C136.4,294.4,103.6,253,64.5,254z"/>
<path id="XMLID_17_" class="st2" d="M90.7,284c-0.5,1.3-1.5,2.5-2.8,3.4l0,0c-2.2,1.5-5.2,2.1-8.1,1.6c-4.6-0.8-7.3-4.4-5.9-8
	c1.4-3.6,6.3-5.8,10.9-5C89.5,276.9,92.1,280.4,90.7,284z"/>
<path id="XMLID_16_" class="st2" d="M67.2,301.5c3.3-2.6,8-5.5,15.6-7.6c1.5-0.4,7.8-1.9,11.4-3.7c0.1,0,0.1-0.1,0.1-0.1
	c0.7-0.3,1.3-0.7,1.8-1c0.1,0,0.1-0.1,0.2-0.1c3.7-2.4,4.5-4.8,4.2-6.8c-0.9-3.4-4.2-6-7.4-7.9c-0.5-0.2-0.9-0.5-1.4-0.7l-5.8-2.4
	c0,0,0.5,0.1,1.3,0.4c-0.6-0.2-0.9-0.4-0.9-0.4c29.1,4.2,41.2,34.9,44.1,54.7C120.8,307.4,89.8,289.1,67.2,301.5z"/>
<g id="XMLID_233_">
	<path id="XMLID_234_" d="M91.2,342.1l-8.4,3.2c-1.2-3.8-3.4-5.7-6.6-5.7c-1.5,0-2.7,0.4-3.5,1.3s-1.3,1.8-1.3,3
		c0,1.3,0.5,2.4,1.5,3.1c1,0.8,3.2,1.8,6.5,3.1c3,1.1,5.3,2.2,7,3.3c1.7,1.1,3.1,2.6,4.1,4.4s1.6,4,1.6,6.5c0,4.3-1.5,7.9-4.5,10.6
		c-3,2.8-7,4.2-12,4.2c-8.4,0-13.8-4.2-16.1-12.7l8.9-2.5c1.1,4.7,3.6,7,7.4,7c1.8,0,3.2-0.5,4.3-1.4c1.1-0.9,1.6-2.1,1.6-3.6
		c0-1.1-0.4-2.1-1.2-3c-0.8-0.9-2.5-1.8-5.3-2.8c-3.6-1.3-6.2-2.4-7.9-3.4c-1.7-1-3.2-2.5-4.3-4.4c-1.1-1.9-1.7-4.1-1.7-6.5
		c0-4.2,1.3-7.6,4-10.2c2.7-2.7,6.2-4,10.6-4C84.2,331.3,89.3,334.9,91.2,342.1z"/>
	<path id="XMLID_236_" d="M114.7,353.7h16.1v24.7h-4.3l-1.3-5.3c-2.5,4-6.2,6-11.2,6c-5.3,0-9.4-2.1-12.5-6.2
		c-3.1-4.2-4.6-9.7-4.6-16.7c0-7.6,1.5-13.7,4.6-18.1c3-4.4,7.5-6.7,13.5-6.7c9.5,0,14.8,5.3,15.9,15.9l-9.2,1.5
		c-0.6-6.1-2.8-9.1-6.6-9.1c-2.3,0-4.1,1.1-5.5,3.4c-1.4,2.2-2.1,6.5-2.1,12.7c0,5.5,0.7,9.4,2,11.7c1.3,2.3,3.3,3.4,5.9,3.4
		c4.1,0,6.2-3.1,6.2-9.2h-6.9V353.7z"/>
	<path id="XMLID_238_" d="M138.7,332h11c4.7,0,8.6,0.6,11.6,1.9c3,1.3,5.4,3.6,7.1,7.1c1.8,3.4,2.7,8.1,2.7,13.9
		c0,4.2-0.5,7.9-1.6,11.1c-1.1,3.2-2.5,5.8-4.3,7.6s-3.8,3.1-6,3.7c-2.2,0.6-5,0.9-8.3,0.9h-12.2V332z M148.9,340v30.4h1.7
		c2.4,0,4.2-0.5,5.5-1.4c1.3-0.9,2.3-2.5,3.1-4.7c0.8-2.3,1.2-5.5,1.2-9.8c0-3.9-0.4-7-1.3-9.1c-0.9-2.1-1.9-3.6-3.2-4.3
		c-1.3-0.8-3-1.1-5.3-1.1H148.9z"/>
	<path id="XMLID_241_" d="M206.1,342.1l-8.4,3.2c-1.2-3.8-3.4-5.7-6.6-5.7c-1.5,0-2.7,0.4-3.5,1.3s-1.3,1.8-1.3,3
		c0,1.3,0.5,2.4,1.5,3.1c1,0.8,3.2,1.8,6.5,3.1c3,1.1,5.3,2.2,7,3.3s3.1,2.6,4.1,4.4s1.6,4,1.6,6.5c0,4.3-1.5,7.9-4.5,10.6
		c-3,2.8-7,4.2-12,4.2c-8.4,0-13.8-4.2-16.1-12.7l8.9-2.5c1.1,4.7,3.6,7,7.4,7c1.8,0,3.2-0.5,4.3-1.4c1.1-0.9,1.6-2.1,1.6-3.6
		c0-1.1-0.4-2.1-1.2-3c-0.8-0.9-2.5-1.8-5.3-2.8c-3.6-1.3-6.2-2.4-7.9-3.4c-1.7-1-3.2-2.5-4.3-4.4c-1.1-1.9-1.7-4.1-1.7-6.5
		c0-4.2,1.3-7.6,4-10.2c2.7-2.7,6.2-4,10.6-4C199.1,331.3,204.1,334.9,206.1,342.1z"/>
</g>
<g id="XMLID_223_">
	<path id="XMLID_224_" d="M109.4,407.6V389h3.9v18.6H109.4z"/>
	<path id="XMLID_226_" d="M121.9,407.6h-3.9V389h10.7v3.2h-6.8v4.8h6.3v3.2h-6.3V407.6z"/>
	<path id="XMLID_228_" d="M136.3,400.4v7.1h-3.9V389h5.4c2.5,0,4.4,0.5,5.6,1.4c1.2,0.9,1.8,2.3,1.8,4.2c0,1.1-0.3,2.1-0.9,2.9
		s-1.5,1.5-2.6,2c2.8,4.2,4.6,6.9,5.5,8.1h-4.4l-4.4-7.1H136.3z M136.3,397.2h1.3c1.2,0,2.2-0.2,2.8-0.6c0.6-0.4,0.9-1.1,0.9-2
		c0-0.9-0.3-1.5-0.9-1.9s-1.5-0.6-2.8-0.6h-1.2V397.2z"/>
	<path id="XMLID_231_" d="M160.5,402.4c0,1.7-0.6,3-1.8,4s-2.9,1.4-5,1.4c-2,0-3.7-0.4-5.3-1.1V403c1.3,0.6,2.3,1,3.2,1.2
		s1.7,0.3,2.4,0.3c0.9,0,1.5-0.2,2-0.5c0.5-0.3,0.7-0.8,0.7-1.5c0-0.4-0.1-0.7-0.3-1c-0.2-0.3-0.5-0.6-0.9-0.8s-1.2-0.7-2.4-1.3
		c-1.1-0.5-2-1-2.6-1.5c-0.6-0.5-1-1.1-1.4-1.7s-0.5-1.4-0.5-2.3c0-1.6,0.6-2.9,1.7-3.9c1.1-0.9,2.7-1.4,4.6-1.4
		c1,0,1.9,0.1,2.8,0.3c0.9,0.2,1.8,0.6,2.8,1l-1.3,3.1c-1-0.4-1.8-0.7-2.5-0.9s-1.3-0.2-1.9-0.2c-0.7,0-1.3,0.2-1.7,0.5
		c-0.4,0.3-0.6,0.8-0.6,1.4c0,0.3,0.1,0.7,0.2,0.9c0.2,0.3,0.4,0.5,0.8,0.8c0.4,0.2,1.2,0.7,2.5,1.3c1.7,0.8,2.9,1.7,3.6,2.5
		C160.2,400.2,160.5,401.2,160.5,402.4z"/>
</g>
<line id="XMLID_11_" class="st3" x1="58.5" y1="398.1" x2="99.6" y2="398.1"/>
<line id="XMLID_35_" class="st3" x1="166.7" y1="398.1" x2="207.8" y2="398.1"/>
<path id="XMLID_58_" class="st0" d="M344.4,241.8c-3.1,0.7-6.3,0.4-9.2-0.7l0,0c-4.9-1.8-9.1-5.9-10.9-11.1
	c-2.9-8.4,1.5-16.8,9.7-18.7c8.2-1.9,17.2,3.4,20.1,11.8C357,231.5,352.6,239.9,344.4,241.8z"/>
<path id="XMLID_57_" class="st0" d="M288.2,224c8.3,2.3,18.2,6.5,29.6,16.4c2.2,1.9,11.2,10.4,18.2,14c0.1,0.1,0.2,0.1,0.3,0.1
	c1.3,0.7,2.6,1.3,3.7,1.8c0.1,0.1,0.2,0.1,0.4,0.1c8.2,3.2,13.6,1.7,17.1-1.1c5.6-5.4,7.6-13.7,7.9-21c0-1,0.1-2,0-3l-1-12
	c0,0,0.2,1,0.4,2.6c-0.1-1.2-0.2-1.9-0.2-1.9c20,51.7-6.8,102.3-42.1,129.9C349,312.9,333.7,246.2,288.2,224z"/>
<path id="XMLID_56_" class="st1" d="M293.4,270.2c-1.8,1.5-4,2.3-6.4,2.6l0,0c-4,0.5-8.4-0.7-11.6-3.4c-5.2-4.4-5.6-11.1-0.9-15
	c4.8-3.9,12.8-3.6,18.1,0.8C297.7,259.6,298.1,266.4,293.4,270.2z"/>
<path id="XMLID_55_" class="st1" d="M248.8,277.5c6.4-1.3,14.7-1.9,26.2,0.6c2.2,0.5,11.5,2.8,17.7,2.9c0.1,0,0.2,0,0.2,0
	c1.2,0,2.2-0.1,3.2-0.1c0.1,0,0.2,0,0.3,0c6.7-0.6,9.8-3.4,11-6.3c1.6-5.3-0.3-11.1-2.9-15.8c-0.4-0.7-0.8-1.3-1.2-1.9l-5.4-7.3
	c0,0,0.5,0.5,1.3,1.5c-0.5-0.7-0.9-1.1-0.9-1.1c33.7,25.9,32,71.1,19.2,100.1C320.7,317.9,287.9,276.5,248.8,277.5z"/>
<path id="XMLID_54_" class="st2" d="M275,307.5c-0.5,1.3-1.5,2.5-2.8,3.4l0,0c-2.2,1.5-5.2,2.1-8.1,1.6c-4.6-0.8-7.3-4.4-5.9-8
	c1.4-3.6,6.3-5.8,10.9-5C273.8,300.4,276.4,304,275,307.5z"/>
<path id="XMLID_53_" class="st2" d="M251.5,325c3.3-2.6,8-5.5,15.6-7.6c1.5-0.4,7.8-1.9,11.4-3.7c0.1,0,0.1-0.1,0.1-0.1
	c0.7-0.3,1.3-0.7,1.8-1c0.1,0,0.1-0.1,0.2-0.1c3.7-2.4,4.5-4.8,4.2-6.8c-0.9-3.4-4.2-6-7.4-7.9c-0.5-0.2-0.9-0.5-1.4-0.7l-5.8-2.4
	c0,0,0.5,0.1,1.3,0.4c-0.6-0.2-0.9-0.4-0.9-0.4c29.1,4.2,41.2,34.9,44.1,54.7C305.1,330.9,274.1,312.6,251.5,325z"/>
<g id="XMLID_213_">
	<path id="XMLID_214_" d="M424.7,257.8l-8.4,3.2c-1.2-3.8-3.4-5.7-6.6-5.7c-1.5,0-2.7,0.4-3.5,1.3c-0.9,0.8-1.3,1.8-1.3,3
		c0,1.3,0.5,2.4,1.5,3.1c1,0.8,3.2,1.8,6.5,3.1c3,1.1,5.3,2.2,7,3.3c1.7,1.1,3.1,2.6,4.1,4.4s1.6,4,1.6,6.5c0,4.3-1.5,7.9-4.5,10.6
		c-3,2.8-7,4.2-12,4.2c-8.4,0-13.8-4.2-16.1-12.7l8.9-2.5c1.1,4.7,3.6,7,7.4,7c1.8,0,3.2-0.5,4.3-1.4s1.6-2.1,1.6-3.6
		c0-1.1-0.4-2.1-1.2-3c-0.8-0.9-2.5-1.8-5.3-2.8c-3.6-1.3-6.2-2.4-7.9-3.4c-1.7-1-3.2-2.5-4.3-4.4c-1.1-1.9-1.7-4.1-1.7-6.5
		c0-4.2,1.3-7.6,4-10.2c2.7-2.7,6.2-4,10.6-4C417.7,247,422.8,250.6,424.7,257.8z"/>
	<path id="XMLID_216_" d="M448.2,269.3h16.1V294H460l-1.3-5.3c-2.5,4-6.2,6-11.2,6c-5.3,0-9.4-2.1-12.5-6.2s-4.6-9.7-4.6-16.7
		c0-7.6,1.5-13.7,4.6-18.1c3-4.4,7.5-6.7,13.5-6.7c9.5,0,14.8,5.3,15.9,15.9l-9.2,1.5c-0.6-6.1-2.8-9.1-6.6-9.1
		c-2.3,0-4.1,1.1-5.5,3.4c-1.4,2.2-2.1,6.5-2.1,12.7c0,5.5,0.7,9.4,2,11.7c1.3,2.3,3.3,3.4,5.9,3.4c4.1,0,6.2-3.1,6.2-9.2h-6.9
		V269.3z"/>
	<path id="XMLID_218_" d="M472.2,247.7h11c4.7,0,8.6,0.6,11.6,1.9c3,1.3,5.4,3.6,7.1,7.1c1.8,3.4,2.7,8.1,2.7,13.9
		c0,4.2-0.5,7.9-1.6,11.1c-1.1,3.2-2.5,5.8-4.3,7.6c-1.8,1.9-3.8,3.1-6,3.7c-2.2,0.6-5,0.9-8.3,0.9h-12.2V247.7z M482.4,255.6v30.4
		h1.7c2.4,0,4.2-0.5,5.5-1.4s2.3-2.5,3.1-4.7c0.8-2.3,1.2-5.5,1.2-9.8c0-3.9-0.4-7-1.3-9.1c-0.9-2.1-1.9-3.6-3.2-4.3
		c-1.3-0.8-3-1.1-5.3-1.1H482.4z"/>
	<path id="XMLID_221_" d="M539.6,257.8l-8.4,3.2c-1.2-3.8-3.4-5.7-6.6-5.7c-1.5,0-2.7,0.4-3.5,1.3c-0.9,0.8-1.3,1.8-1.3,3
		c0,1.3,0.5,2.4,1.5,3.1c1,0.8,3.2,1.8,6.5,3.1c3,1.1,5.3,2.2,7,3.3s3.1,2.6,4.1,4.4s1.6,4,1.6,6.5c0,4.3-1.5,7.9-4.5,10.6
		c-3,2.8-7,4.2-12,4.2c-8.4,0-13.8-4.2-16.1-12.7l8.9-2.5c1.1,4.7,3.6,7,7.4,7c1.8,0,3.2-0.5,4.3-1.4s1.6-2.1,1.6-3.6
		c0-1.1-0.4-2.1-1.2-3c-0.8-0.9-2.5-1.8-5.3-2.8c-3.6-1.3-6.2-2.4-7.9-3.4c-1.7-1-3.2-2.5-4.3-4.4c-1.1-1.9-1.7-4.1-1.7-6.5
		c0-4.2,1.3-7.6,4-10.2c2.7-2.7,6.2-4,10.6-4C532.6,247,537.6,250.6,539.6,257.8z"/>
</g>
<g id="XMLID_203_">
	<path id="XMLID_204_" d="M442.9,323.2v-18.6h3.9v18.6H442.9z"/>
	<path id="XMLID_206_" d="M455.4,323.2h-3.9v-18.6h10.7v3.2h-6.8v4.8h6.3v3.2h-6.3V323.2z"/>
	<path id="XMLID_208_" d="M469.8,316.1v7.1h-3.9v-18.6h5.4c2.5,0,4.4,0.5,5.6,1.4c1.2,0.9,1.8,2.3,1.8,4.2c0,1.1-0.3,2.1-0.9,2.9
		c-0.6,0.9-1.5,1.5-2.6,2c2.8,4.2,4.6,6.9,5.5,8.1h-4.4l-4.4-7.1H469.8z M469.8,312.9h1.3c1.2,0,2.2-0.2,2.8-0.6
		c0.6-0.4,0.9-1.1,0.9-2c0-0.9-0.3-1.5-0.9-1.9c-0.6-0.4-1.5-0.6-2.8-0.6h-1.2V312.9z"/>
	<path id="XMLID_211_" d="M494,318.1c0,1.7-0.6,3-1.8,4c-1.2,1-2.9,1.4-5,1.4c-2,0-3.7-0.4-5.3-1.1v-3.7c1.3,0.6,2.3,1,3.2,1.2
		c0.9,0.2,1.7,0.3,2.4,0.3c0.9,0,1.5-0.2,2-0.5s0.7-0.8,0.7-1.5c0-0.4-0.1-0.7-0.3-1c-0.2-0.3-0.5-0.6-0.9-0.8
		c-0.4-0.3-1.2-0.7-2.4-1.3c-1.1-0.5-2-1-2.6-1.5c-0.6-0.5-1-1.1-1.4-1.7c-0.3-0.7-0.5-1.4-0.5-2.3c0-1.6,0.6-2.9,1.7-3.9
		c1.1-0.9,2.7-1.4,4.6-1.4c1,0,1.9,0.1,2.8,0.3c0.9,0.2,1.8,0.6,2.8,1l-1.3,3.1c-1-0.4-1.8-0.7-2.5-0.9c-0.6-0.2-1.3-0.2-1.9-0.2
		c-0.7,0-1.3,0.2-1.7,0.5c-0.4,0.3-0.6,0.8-0.6,1.4c0,0.3,0.1,0.7,0.2,0.9s0.4,0.5,0.8,0.8c0.4,0.2,1.2,0.7,2.5,1.3
		c1.7,0.8,2.9,1.7,3.6,2.5C493.7,315.8,494,316.9,494,318.1z"/>
</g>
<line id="XMLID_50_" class="st3" x1="392" y1="313.8" x2="433.1" y2="313.8"/>
<line id="XMLID_49_" class="st3" x1="500.2" y1="313.8" x2="541.3" y2="313.8"/>
<path id="XMLID_48_" class="st0" d="M108,487.9c-1.9,0.4-3.8,0.3-5.5-0.4l0,0c-2.9-1.1-5.5-3.5-6.5-6.7c-1.7-5.1,0.9-10.1,5.8-11.2
	c4.9-1.2,10.4,2,12.1,7.1C115.5,481.7,112.9,486.7,108,487.9z"/>
<path id="XMLID_47_" class="st0" d="M74.3,477.2c5,1.4,10.9,3.9,17.8,9.8c1.3,1.1,6.7,6.2,10.9,8.4c0.1,0,0.1,0,0.2,0.1
	c0.8,0.4,1.5,0.8,2.2,1.1c0.1,0,0.1,0.1,0.2,0.1c4.9,2,8.2,1,10.3-0.6c3.4-3.3,4.5-8.2,4.8-12.6c0-0.6,0-1.2,0-1.8l-0.6-7.2
	c0,0,0.1,0.6,0.2,1.5c-0.1-0.7-0.1-1.2-0.1-1.2c12,31-4.1,61.4-25.3,78C110.8,530.5,101.6,490.5,74.3,477.2z"/>
<path id="XMLID_46_" class="st1" d="M77.4,504.9c-1.1,0.9-2.4,1.4-3.9,1.6l0,0c-2.4,0.3-5-0.4-7-2.1c-3.1-2.6-3.4-6.6-0.5-9
	c2.9-2.4,7.7-2.1,10.8,0.5C80,498.5,80.2,502.6,77.4,504.9z"/>
<path id="XMLID_45_" class="st1" d="M50.6,509.3c3.8-0.8,8.8-1.2,15.7,0.3c1.3,0.3,6.9,1.7,10.6,1.7c0.1,0,0.1,0,0.1,0
	c0.7,0,1.3,0,1.9-0.1c0.1,0,0.1,0,0.2,0c4-0.4,5.9-2,6.6-3.8c1-3.2-0.2-6.7-1.8-9.5c-0.2-0.4-0.5-0.8-0.7-1.1l-3.2-4.4
	c0,0,0.3,0.3,0.8,0.9c-0.3-0.4-0.5-0.7-0.5-0.7c20.2,15.6,19.2,42.7,11.5,60.1C93.8,533.5,74.1,508.7,50.6,509.3z"/>
<path id="XMLID_44_" class="st2" d="M66.4,527.3c-0.3,0.8-0.9,1.5-1.7,2l0,0c-1.3,0.9-3.1,1.3-4.8,1c-2.8-0.5-4.4-2.6-3.5-4.8
	c0.8-2.2,3.8-3.5,6.6-3C65.6,523,67.2,525.1,66.4,527.3z"/>
<path id="XMLID_43_" class="st2" d="M52.2,537.8c2-1.6,4.8-3.3,9.4-4.6c0.9-0.2,4.7-1.1,6.8-2.2c0,0,0.1,0,0.1-0.1
	c0.4-0.2,0.8-0.4,1.1-0.6c0,0,0.1,0,0.1-0.1c2.2-1.4,2.7-2.9,2.5-4.1c-0.6-2-2.5-3.6-4.5-4.7c-0.3-0.1-0.6-0.3-0.8-0.4l-3.5-1.4
	c0,0,0.3,0.1,0.8,0.3c-0.3-0.1-0.6-0.2-0.6-0.2c17.5,2.5,24.7,20.9,26.5,32.8C84.4,541.3,65.8,530.3,52.2,537.8z"/>
<g id="XMLID_106_">
	<path id="XMLID_107_" d="M151.1,500.2l-3,1.1c-0.4-1.3-1.2-2-2.3-2c-0.5,0-0.9,0.1-1.2,0.4s-0.5,0.6-0.5,1c0,0.5,0.2,0.8,0.5,1.1
		c0.4,0.3,1.1,0.6,2.3,1.1c1.1,0.4,1.9,0.8,2.5,1.2c0.6,0.4,1.1,0.9,1.5,1.6c0.4,0.7,0.6,1.4,0.6,2.3c0,1.5-0.5,2.8-1.6,3.7
		s-2.5,1.5-4.2,1.5c-3,0-4.8-1.5-5.7-4.5l3.1-0.9c0.4,1.6,1.3,2.5,2.6,2.5c0.6,0,1.1-0.2,1.5-0.5c0.4-0.3,0.6-0.7,0.6-1.3
		c0-0.4-0.1-0.8-0.4-1.1c-0.3-0.3-0.9-0.6-1.9-1c-1.3-0.4-2.2-0.8-2.8-1.2s-1.1-0.9-1.5-1.6c-0.4-0.7-0.6-1.4-0.6-2.3
		c0-1.5,0.5-2.7,1.4-3.6c0.9-0.9,2.2-1.4,3.7-1.4C148.6,496.4,150.4,497.6,151.1,500.2z"/>
	<path id="XMLID_109_" d="M156.7,499.9h-3.4v-3.3h3.4V499.9z M153.3,500.9h3.4v12.1h-3.4V500.9z"/>
	<path id="XMLID_112_" d="M167.1,503.8l-2.4,0.7c-0.3-1.1-0.9-1.6-1.8-1.6c-0.7,0-1.1,0.4-1.1,1.1c0,0.4,0.1,0.7,0.4,0.9
		s0.8,0.5,1.6,0.7c0.9,0.3,1.6,0.6,2,0.9c0.4,0.2,0.8,0.6,1.1,1.1c0.3,0.5,0.4,1.1,0.4,1.7c0,1.1-0.4,2.1-1.2,2.8
		c-0.8,0.8-1.9,1.1-3.4,1.1c-2.7,0-4.2-1.2-4.5-3.6l2.7-0.4c0.2,1.2,0.9,1.8,1.9,1.8c0.9,0,1.3-0.4,1.3-1.1c0-0.4-0.1-0.7-0.4-0.9
		s-0.8-0.4-1.5-0.7c-1.4-0.4-2.3-1-2.9-1.6s-0.8-1.4-0.8-2.2c0-1.2,0.4-2.1,1.2-2.8c0.8-0.7,1.8-1.1,3.1-1.1
		C165.2,500.6,166.5,501.7,167.1,503.8z"/>
	<path id="XMLID_114_" d="M169.8,497.2l3.3-0.1v3.8h2.2v2.7H173v4.4c0,0.8,0,1.4,0.1,1.6c0,0.2,0.2,0.4,0.4,0.6s0.5,0.2,1,0.2
		c0.3,0,0.6,0,1,0v2.6c-0.7,0.2-1.4,0.3-2.1,0.3c-1,0-1.8-0.2-2.3-0.6c-0.5-0.4-0.9-0.9-1-1.5c-0.2-0.6-0.2-1.5-0.2-2.8v-4.8h-1.3
		v-2.7h1.3V497.2z"/>
	<path id="XMLID_116_" d="M186,507.5h-6.3v0.7c0,1.1,0.1,1.8,0.4,2.2c0.3,0.4,0.7,0.5,1.2,0.5c1,0,1.6-0.7,1.7-2.1l3,0.2
		c-0.5,2.8-2.1,4.2-4.8,4.2c-1.6,0-2.9-0.6-3.7-1.7s-1.3-2.6-1.3-4.4c0-2.1,0.5-3.7,1.4-4.8c0.9-1.1,2.1-1.7,3.6-1.7
		c1.4,0,2.5,0.5,3.4,1.5C185.6,503.1,186,504.9,186,507.5z M182.9,505.5c0-0.1,0-0.3,0-0.3c0-1.6-0.5-2.3-1.6-2.3
		c-1,0-1.6,0.9-1.6,2.7H182.9z"/>
	<path id="XMLID_119_" d="M188,500.9h3.2v1.6c0.6-1.3,1.5-1.9,2.9-1.9c1.4,0,2.3,0.6,2.6,1.9c0.5-1.3,1.5-1.9,2.9-1.9
		c0.8,0,1.4,0.1,1.9,0.4c0.5,0.3,0.8,0.7,1,1.2c0.2,0.5,0.3,1.4,0.3,2.8v7.9h-3.4v-7.5c0-0.9-0.1-1.5-0.2-1.8
		c-0.1-0.3-0.4-0.4-0.8-0.4c-0.5,0-0.9,0.2-1,0.5c-0.2,0.4-0.2,1.1-0.2,2.1v7h-3.4v-7.6c0-0.9-0.1-1.4-0.2-1.7s-0.4-0.4-0.8-0.4
		c-0.5,0-0.9,0.2-1.1,0.6c-0.2,0.4-0.3,1.1-0.3,2.1v7H188V500.9z"/>
	<path id="XMLID_121_" d="M208.3,504.7l-3.2-0.3c0.2-1.2,0.7-2.1,1.5-2.8c0.9-0.7,2-1,3.3-1c1.1,0,2,0.2,2.7,0.7
		c0.7,0.4,1.1,0.9,1.3,1.5c0.2,0.6,0.3,1.5,0.3,2.7v4.8c0,1.5,0.1,2.4,0.2,2.7h-3.1c-0.1-0.3-0.2-0.9-0.2-1.9
		c-0.7,1.4-1.8,2.1-3.3,2.1c-0.9,0-1.7-0.3-2.3-0.8s-0.9-1.4-0.9-2.5c0-1.3,0.4-2.4,1.3-3.1c0.9-0.7,2.5-1.2,4.9-1.3V505
		c0-0.8-0.1-1.4-0.2-1.7c-0.2-0.3-0.5-0.5-0.9-0.5C208.9,502.8,208.4,503.5,208.3,504.7z M210.9,507.2c-1,0.1-1.7,0.3-2.1,0.6
		s-0.6,0.9-0.6,1.6c0,1,0.4,1.5,1.1,1.5c0.4,0,0.8-0.2,1.1-0.7c0.3-0.5,0.5-1.3,0.5-2.5V507.2z"/>
	<path id="XMLID_124_" d="M227.3,504.2h5.7v8.7h-1.5l-0.5-1.9c-0.9,1.4-2.2,2.1-3.9,2.1c-1.9,0-3.3-0.7-4.4-2.2s-1.6-3.4-1.6-5.9
		c0-2.7,0.5-4.8,1.6-6.4c1.1-1.6,2.7-2.3,4.7-2.3c3.3,0,5.2,1.9,5.6,5.6l-3.2,0.5c-0.2-2.1-1-3.2-2.3-3.2c-0.8,0-1.4,0.4-1.9,1.2
		s-0.7,2.3-0.7,4.5c0,2,0.2,3.3,0.7,4.1s1.2,1.2,2.1,1.2c1.5,0,2.2-1.1,2.2-3.2h-2.4V504.2z"/>
	<path id="XMLID_126_" d="M244.8,507.5h-6.3v0.7c0,1.1,0.1,1.8,0.4,2.2c0.3,0.4,0.7,0.5,1.2,0.5c1,0,1.6-0.7,1.7-2.1l3,0.2
		c-0.5,2.8-2.1,4.2-4.8,4.2c-1.6,0-2.9-0.6-3.7-1.7s-1.3-2.6-1.3-4.4c0-2.1,0.5-3.7,1.4-4.8c0.9-1.1,2.1-1.7,3.6-1.7
		c1.4,0,2.5,0.5,3.4,1.5C244.3,503.1,244.8,504.9,244.8,507.5z M241.6,505.5c0-0.1,0-0.3,0-0.3c0-1.6-0.5-2.3-1.6-2.3
		c-1,0-1.6,0.9-1.6,2.7H241.6z"/>
	<path id="XMLID_129_" d="M246.7,500.9h3v2.9c0.5-2,1.5-3.1,2.9-3.1c0.2,0,0.4,0,0.6,0.1v3.3c-0.2,0-0.4,0-0.6,0
		c-1.6,0-2.5,1.2-2.5,3.7v5.2h-3.4V500.9z"/>
	<path id="XMLID_131_" d="M263.5,507.5h-6.3v0.7c0,1.1,0.1,1.8,0.4,2.2c0.3,0.4,0.7,0.5,1.2,0.5c1,0,1.6-0.7,1.7-2.1l3,0.2
		c-0.5,2.8-2.1,4.2-4.8,4.2c-1.6,0-2.9-0.6-3.7-1.7s-1.3-2.6-1.3-4.4c0-2.1,0.5-3.7,1.4-4.8c0.9-1.1,2.1-1.7,3.6-1.7
		c1.4,0,2.5,0.5,3.4,1.5C263.1,503.1,263.5,504.9,263.5,507.5z M260.4,505.5c0-0.1,0-0.3,0-0.3c0-1.6-0.5-2.3-1.6-2.3
		c-1,0-1.6,0.9-1.6,2.7H260.4z"/>
	<path id="XMLID_134_" d="M265.5,500.9h3.2v1.6c0.6-1.3,1.6-1.9,3-1.9c0.8,0,1.4,0.2,2,0.5c0.5,0.4,0.8,0.8,1,1.4
		c0.1,0.5,0.2,1.4,0.2,2.5v7.9h-3.4V505c0-0.8-0.1-1.3-0.3-1.5c-0.2-0.2-0.5-0.3-0.8-0.3c-0.6,0-1,0.2-1.2,0.6
		c-0.2,0.4-0.3,1.1-0.3,2.1v7.1h-3.4V500.9z"/>
	<path id="XMLID_136_" d="M286.2,505.3l-3.1,0.1c0-0.7-0.2-1.3-0.4-1.7c-0.2-0.4-0.5-0.6-1-0.6c-1.1,0-1.7,1.2-1.7,3.6
		c0,1.4,0.1,2.3,0.4,2.9c0.3,0.5,0.7,0.8,1.2,0.8c0.8,0,1.3-0.7,1.4-2.2l3.1,0.2c-0.3,3.2-1.9,4.8-4.7,4.8c-1.6,0-2.7-0.5-3.6-1.6
		s-1.2-2.6-1.2-4.7c0-2.1,0.4-3.6,1.3-4.7c0.9-1.1,2.1-1.6,3.6-1.6C284.4,500.6,285.9,502.2,286.2,505.3z"/>
	<path id="XMLID_138_" d="M291.4,499.9H288v-3.3h3.4V499.9z M288,500.9h3.4v12.1H288V500.9z"/>
	<path id="XMLID_141_" d="M297.1,504.7l-3.2-0.3c0.2-1.2,0.7-2.1,1.5-2.8c0.9-0.7,2-1,3.3-1c1.1,0,2,0.2,2.7,0.7
		c0.7,0.4,1.1,0.9,1.3,1.5c0.2,0.6,0.3,1.5,0.3,2.7v4.8c0,1.5,0.1,2.4,0.2,2.7h-3.1c-0.1-0.3-0.2-0.9-0.2-1.9
		c-0.7,1.4-1.8,2.1-3.3,2.1c-0.9,0-1.7-0.3-2.3-0.8s-0.9-1.4-0.9-2.5c0-1.3,0.4-2.4,1.3-3.1c0.9-0.7,2.5-1.2,4.9-1.3V505
		c0-0.8-0.1-1.4-0.2-1.7c-0.2-0.3-0.5-0.5-0.9-0.5C297.6,502.8,297.1,503.5,297.1,504.7z M299.7,507.2c-1,0.1-1.7,0.3-2.1,0.6
		s-0.6,0.9-0.6,1.6c0,1,0.4,1.5,1.1,1.5c0.4,0,0.8-0.2,1.1-0.7c0.3-0.5,0.5-1.3,0.5-2.5V507.2z"/>
	<path id="XMLID_144_" d="M311.4,496.6h3.3v16.3h-3.1v-2c-0.5,1.4-1.4,2.2-2.7,2.2c-1.3,0-2.3-0.6-2.9-1.7c-0.6-1.1-1-2.6-1-4.5
		c0-2.1,0.4-3.7,1.1-4.7c0.7-1,1.7-1.6,2.9-1.6c1.1,0,1.9,0.4,2.4,1.3V496.6z M311.4,505.9c0-1.2-0.1-2-0.4-2.4s-0.6-0.6-1.1-0.6
		c-0.6,0-1,0.3-1.2,0.8s-0.3,1.7-0.3,3.5c0,1.3,0.1,2.2,0.3,2.7c0.2,0.5,0.6,0.8,1.1,0.8c0.4,0,0.8-0.2,1.1-0.5
		c0.3-0.4,0.4-1.1,0.4-2.2V505.9z"/>
	<path id="XMLID_147_" d="M326.4,506.9c0,4.2-1.6,6.3-4.9,6.3c-3.3,0-4.9-2.1-4.9-6.3c0-4.2,1.6-6.3,4.9-6.3
		C324.8,500.6,326.4,502.7,326.4,506.9z M323,506.9c0-1.5-0.1-2.6-0.3-3.1c-0.2-0.5-0.6-0.8-1.1-0.8c-0.5,0-0.9,0.3-1.1,0.8
		c-0.2,0.5-0.3,1.6-0.3,3.2c0,1.5,0.1,2.5,0.3,3.1s0.6,0.9,1.1,0.9c0.5,0,0.9-0.3,1.1-0.9S323,508.4,323,506.9z"/>
	<path id="XMLID_150_" d="M328.4,500.9h3v2.9c0.5-2,1.5-3.1,2.9-3.1c0.2,0,0.4,0,0.6,0.1v3.3c-0.2,0-0.4,0-0.6,0
		c-1.6,0-2.5,1.2-2.5,3.7v5.2h-3.4V500.9z"/>
	<path id="XMLID_152_" d="M346.4,496.6h3.3v16.3h-3.1v-2c-0.5,1.4-1.4,2.2-2.7,2.2c-1.3,0-2.3-0.6-2.9-1.7c-0.6-1.1-1-2.6-1-4.5
		c0-2.1,0.4-3.7,1.1-4.7c0.7-1,1.7-1.6,2.9-1.6c1.1,0,1.9,0.4,2.4,1.3V496.6z M346.4,505.9c0-1.2-0.1-2-0.4-2.4s-0.6-0.6-1.1-0.6
		c-0.6,0-1,0.3-1.2,0.8s-0.3,1.7-0.3,3.5c0,1.3,0.1,2.2,0.3,2.7c0.2,0.5,0.6,0.8,1.1,0.8c0.4,0,0.8-0.2,1.1-0.5
		c0.3-0.4,0.4-1.1,0.4-2.2V505.9z"/>
	<path id="XMLID_155_" d="M361.4,507.5h-6.3v0.7c0,1.1,0.1,1.8,0.4,2.2c0.3,0.4,0.7,0.5,1.2,0.5c1,0,1.6-0.7,1.7-2.1l3,0.2
		c-0.5,2.8-2.1,4.2-4.8,4.2c-1.6,0-2.9-0.6-3.7-1.7s-1.3-2.6-1.3-4.4c0-2.1,0.5-3.7,1.4-4.8c0.9-1.1,2.1-1.7,3.6-1.7
		c1.4,0,2.5,0.5,3.4,1.5C361,503.1,361.4,504.9,361.4,507.5z M358.3,505.5c0-0.1,0-0.3,0-0.3c0-1.6-0.5-2.3-1.6-2.3
		c-1,0-1.6,0.9-1.6,2.7H358.3z"/>
	<path id="XMLID_158_" d="M368.3,496.6h3.9c1.7,0,3,0.2,4.1,0.7c1,0.5,1.9,1.3,2.5,2.5s0.9,2.8,0.9,4.9c0,1.5-0.2,2.8-0.6,3.9
		c-0.4,1.1-0.9,2-1.5,2.7c-0.6,0.7-1.3,1.1-2.1,1.3s-1.8,0.3-2.9,0.3h-4.3V496.6z M371.8,499.4v10.7h0.6c0.8,0,1.5-0.2,1.9-0.5
		c0.5-0.3,0.8-0.9,1.1-1.7c0.3-0.8,0.4-1.9,0.4-3.4c0-1.4-0.2-2.5-0.4-3.2c-0.3-0.7-0.7-1.3-1.1-1.5c-0.5-0.3-1.1-0.4-1.9-0.4H371.8
		z"/>
	<path id="XMLID_161_" d="M384.9,504.7l-3.2-0.3c0.2-1.2,0.7-2.1,1.5-2.8c0.9-0.7,2-1,3.3-1c1.1,0,2,0.2,2.7,0.7
		c0.7,0.4,1.1,0.9,1.3,1.5c0.2,0.6,0.3,1.5,0.3,2.7v4.8c0,1.5,0.1,2.4,0.2,2.7H388c-0.1-0.3-0.2-0.9-0.2-1.9
		c-0.7,1.4-1.8,2.1-3.3,2.1c-0.9,0-1.7-0.3-2.3-0.8s-0.9-1.4-0.9-2.5c0-1.3,0.4-2.4,1.3-3.1c0.9-0.7,2.5-1.2,4.9-1.3V505
		c0-0.8-0.1-1.4-0.2-1.7c-0.2-0.3-0.5-0.5-0.9-0.5C385.5,502.8,385,503.5,384.9,504.7z M387.5,507.2c-1,0.1-1.7,0.3-2.1,0.6
		s-0.6,0.9-0.6,1.6c0,1,0.4,1.5,1.1,1.5c0.4,0,0.8-0.2,1.1-0.7c0.3-0.5,0.5-1.3,0.5-2.5V507.2z"/>
	<path id="XMLID_164_" d="M399.3,496.6h3.3v16.3h-3.1v-2c-0.5,1.4-1.4,2.2-2.7,2.2c-1.3,0-2.3-0.6-2.9-1.7c-0.6-1.1-1-2.6-1-4.5
		c0-2.1,0.4-3.7,1.1-4.7c0.7-1,1.7-1.6,2.9-1.6c1.1,0,1.9,0.4,2.4,1.3V496.6z M399.3,505.9c0-1.2-0.1-2-0.4-2.4s-0.6-0.6-1.1-0.6
		c-0.6,0-1,0.3-1.2,0.8s-0.3,1.7-0.3,3.5c0,1.3,0.1,2.2,0.3,2.7c0.2,0.5,0.6,0.8,1.1,0.8c0.4,0,0.8-0.2,1.1-0.5
		c0.3-0.4,0.4-1.1,0.4-2.2V505.9z"/>
	<path id="XMLID_167_" d="M414.3,506.9c0,4.2-1.6,6.3-4.9,6.3c-3.3,0-4.9-2.1-4.9-6.3c0-4.2,1.6-6.3,4.9-6.3
		C412.7,500.6,414.3,502.7,414.3,506.9z M410.9,506.9c0-1.5-0.1-2.6-0.3-3.1c-0.2-0.5-0.6-0.8-1.1-0.8c-0.5,0-0.9,0.3-1.1,0.8
		c-0.2,0.5-0.3,1.6-0.3,3.2c0,1.5,0.1,2.5,0.3,3.1s0.6,0.9,1.1,0.9c0.5,0,0.9-0.3,1.1-0.9S410.9,508.4,410.9,506.9z"/>
	<path id="XMLID_170_" d="M424.3,503.8l-2.4,0.7c-0.3-1.1-0.9-1.6-1.8-1.6c-0.7,0-1.1,0.4-1.1,1.1c0,0.4,0.1,0.7,0.4,0.9
		s0.8,0.5,1.6,0.7c0.9,0.3,1.6,0.6,2,0.9c0.4,0.2,0.8,0.6,1.1,1.1c0.3,0.5,0.4,1.1,0.4,1.7c0,1.1-0.4,2.1-1.2,2.8
		c-0.8,0.8-1.9,1.1-3.4,1.1c-2.7,0-4.2-1.2-4.5-3.6l2.7-0.4c0.2,1.2,0.9,1.8,1.9,1.8c0.9,0,1.3-0.4,1.3-1.1c0-0.4-0.1-0.7-0.4-0.9
		s-0.8-0.4-1.5-0.7c-1.4-0.4-2.3-1-2.9-1.6s-0.8-1.4-0.8-2.2c0-1.2,0.4-2.1,1.2-2.8c0.8-0.7,1.8-1.1,3.1-1.1
		C422.3,500.6,423.7,501.7,424.3,503.8z"/>
	<path id="XMLID_172_" d="M436.8,496.6h3.3v16.3h-3.1v-2c-0.5,1.4-1.4,2.2-2.7,2.2c-1.3,0-2.3-0.6-2.9-1.7c-0.6-1.1-1-2.6-1-4.5
		c0-2.1,0.4-3.7,1.1-4.7c0.7-1,1.7-1.6,2.9-1.6c1.1,0,1.9,0.4,2.4,1.3V496.6z M436.8,505.9c0-1.2-0.1-2-0.4-2.4s-0.6-0.6-1.1-0.6
		c-0.6,0-1,0.3-1.2,0.8s-0.3,1.7-0.3,3.5c0,1.3,0.1,2.2,0.3,2.7c0.2,0.5,0.6,0.8,1.1,0.8c0.4,0,0.8-0.2,1.1-0.5
		c0.3-0.4,0.4-1.1,0.4-2.2V505.9z"/>
	<path id="XMLID_175_" d="M451.8,507.5h-6.3v0.7c0,1.1,0.1,1.8,0.4,2.2c0.3,0.4,0.7,0.5,1.2,0.5c1,0,1.6-0.7,1.7-2.1l3,0.2
		c-0.5,2.8-2.1,4.2-4.8,4.2c-1.6,0-2.9-0.6-3.7-1.7s-1.3-2.6-1.3-4.4c0-2.1,0.5-3.7,1.4-4.8c0.9-1.1,2.1-1.7,3.6-1.7
		c1.4,0,2.5,0.5,3.4,1.5C451.3,503.1,451.8,504.9,451.8,507.5z M448.6,505.5c0-0.1,0-0.3,0-0.3c0-1.6-0.5-2.3-1.6-2.3
		c-1,0-1.6,0.9-1.6,2.7H448.6z"/>
	<path id="XMLID_178_" d="M468.6,500.2l-3,1.1c-0.4-1.3-1.2-2-2.3-2c-0.5,0-0.9,0.1-1.2,0.4s-0.5,0.6-0.5,1c0,0.5,0.2,0.8,0.5,1.1
		c0.4,0.3,1.1,0.6,2.3,1.1c1.1,0.4,1.9,0.8,2.5,1.2c0.6,0.4,1.1,0.9,1.5,1.6c0.4,0.7,0.6,1.4,0.6,2.3c0,1.5-0.5,2.8-1.6,3.7
		s-2.5,1.5-4.2,1.5c-3,0-4.8-1.5-5.7-4.5l3.1-0.9c0.4,1.6,1.3,2.5,2.6,2.5c0.6,0,1.1-0.2,1.5-0.5c0.4-0.3,0.6-0.7,0.6-1.3
		c0-0.4-0.1-0.8-0.4-1.1c-0.3-0.3-0.9-0.6-1.9-1c-1.3-0.4-2.2-0.8-2.8-1.2s-1.1-0.9-1.5-1.6c-0.4-0.7-0.6-1.4-0.6-2.3
		c0-1.5,0.5-2.7,1.4-3.6c0.9-0.9,2.2-1.4,3.7-1.4C466.1,496.4,467.9,497.6,468.6,500.2z"/>
	<path id="XMLID_180_" d="M480.1,507.5h-6.3v0.7c0,1.1,0.1,1.8,0.4,2.2c0.3,0.4,0.7,0.5,1.2,0.5c1,0,1.6-0.7,1.7-2.1l3,0.2
		c-0.5,2.8-2.1,4.2-4.8,4.2c-1.6,0-2.9-0.6-3.7-1.7s-1.3-2.6-1.3-4.4c0-2.1,0.5-3.7,1.4-4.8c0.9-1.1,2.1-1.7,3.6-1.7
		c1.4,0,2.5,0.5,3.4,1.5C479.7,503.1,480.1,504.9,480.1,507.5z M476.9,505.5c0-0.1,0-0.3,0-0.3c0-1.6-0.5-2.3-1.6-2.3
		c-1,0-1.6,0.9-1.6,2.7H476.9z"/>
	<path id="XMLID_183_" d="M482.1,500.9h3v2.9c0.5-2,1.5-3.1,2.9-3.1c0.2,0,0.4,0,0.6,0.1v3.3c-0.2,0-0.4,0-0.6,0
		c-1.6,0-2.5,1.2-2.5,3.7v5.2h-3.4V500.9z"/>
	<path id="XMLID_185_" d="M489,500.9h3.2l1.7,7.1l1.7-7.1h2.8l-3.3,12.1h-2.7L489,500.9z"/>
	<path id="XMLID_187_" d="M502.6,499.9h-3.4v-3.3h3.4V499.9z M499.2,500.9h3.4v12.1h-3.4V500.9z"/>
	<path id="XMLID_190_" d="M511,496.6h3.3v16.3h-3.1v-2c-0.5,1.4-1.4,2.2-2.7,2.2c-1.3,0-2.3-0.6-2.9-1.7c-0.6-1.1-1-2.6-1-4.5
		c0-2.1,0.4-3.7,1.1-4.7c0.7-1,1.7-1.6,2.9-1.6c1.1,0,1.9,0.4,2.4,1.3V496.6z M511,505.9c0-1.2-0.1-2-0.4-2.4s-0.6-0.6-1.1-0.6
		c-0.6,0-1,0.3-1.2,0.8s-0.3,1.7-0.3,3.5c0,1.3,0.1,2.2,0.3,2.7c0.2,0.5,0.6,0.8,1.1,0.8c0.4,0,0.8-0.2,1.1-0.5
		c0.3-0.4,0.4-1.1,0.4-2.2V505.9z"/>
	<path id="XMLID_193_" d="M526,506.9c0,4.2-1.6,6.3-4.9,6.3c-3.3,0-4.9-2.1-4.9-6.3c0-4.2,1.6-6.3,4.9-6.3
		C524.4,500.6,526,502.7,526,506.9z M522.5,506.9c0-1.5-0.1-2.6-0.3-3.1c-0.2-0.5-0.6-0.8-1.1-0.8c-0.5,0-0.9,0.3-1.1,0.8
		c-0.2,0.5-0.3,1.6-0.3,3.2c0,1.5,0.1,2.5,0.3,3.1s0.6,0.9,1.1,0.9c0.5,0,0.9-0.3,1.1-0.9S522.5,508.4,522.5,506.9z"/>
	<path id="XMLID_196_" d="M528,500.9h3v2.9c0.5-2,1.5-3.1,2.9-3.1c0.2,0,0.4,0,0.6,0.1v3.3c-0.2,0-0.4,0-0.6,0
		c-1.6,0-2.5,1.2-2.5,3.7v5.2H528V500.9z"/>
	<path id="XMLID_198_" d="M544.8,507.5h-6.3v0.7c0,1.1,0.1,1.8,0.4,2.2c0.3,0.4,0.7,0.5,1.2,0.5c1,0,1.6-0.7,1.7-2.1l3,0.2
		c-0.5,2.8-2.1,4.2-4.8,4.2c-1.6,0-2.9-0.6-3.7-1.7s-1.3-2.6-1.3-4.4c0-2.1,0.5-3.7,1.4-4.8c0.9-1.1,2.1-1.7,3.6-1.7
		c1.4,0,2.5,0.5,3.4,1.5C544.3,503.1,544.8,504.9,544.8,507.5z M541.6,505.5c0-0.1,0-0.3,0-0.3c0-1.6-0.5-2.3-1.6-2.3
		c-1,0-1.6,0.9-1.6,2.7H541.6z"/>
	<path id="XMLID_201_" d="M554.7,503.8l-2.4,0.7c-0.3-1.1-0.9-1.6-1.8-1.6c-0.7,0-1.1,0.4-1.1,1.1c0,0.4,0.1,0.7,0.4,0.9
		s0.8,0.5,1.6,0.7c0.9,0.3,1.6,0.6,2,0.9c0.4,0.2,0.8,0.6,1.1,1.1c0.3,0.5,0.4,1.1,0.4,1.7c0,1.1-0.4,2.1-1.2,2.8
		c-0.8,0.8-1.9,1.1-3.4,1.1c-2.7,0-4.2-1.2-4.5-3.6l2.7-0.4c0.2,1.2,0.9,1.8,1.9,1.8c0.9,0,1.3-0.4,1.3-1.1c0-0.4-0.1-0.7-0.4-0.9
		s-0.8-0.4-1.5-0.7c-1.4-0.4-2.3-1-2.9-1.6s-0.8-1.4-0.8-2.2c0-1.2,0.4-2.1,1.2-2.8c0.8-0.7,1.8-1.1,3.1-1.1
		C552.7,500.6,554.1,501.7,554.7,503.8z"/>
</g>
<g id="XMLID_1_">
	<path id="XMLID_3_" d="M207.1,532.8v-11.2h2.4v11.2H207.1z"/>
	<path id="XMLID_6_" d="M220,532.8h-2.3v-5c0-0.6-0.1-1.1-0.3-1.4s-0.6-0.5-1-0.5c-0.7,0-1.1,0.2-1.4,0.7c-0.3,0.4-0.4,1.2-0.4,2.2
		v4h-2.3v-8.5h1.8l0.3,1.1h0.1c0.3-0.4,0.6-0.7,1.1-0.9c0.5-0.2,1-0.3,1.6-0.3c1,0,1.7,0.3,2.3,0.8c0.5,0.5,0.8,1.3,0.8,2.3V532.8z"
		/>
	<path id="XMLID_8_" d="M228.4,530.3c0,0.9-0.3,1.5-0.9,2c-0.6,0.5-1.5,0.7-2.7,0.7c-0.6,0-1.1,0-1.6-0.1s-0.8-0.2-1.2-0.4v-1.9
		c0.4,0.2,0.9,0.4,1.5,0.5c0.5,0.1,1,0.2,1.4,0.2c0.8,0,1.3-0.2,1.3-0.7c0-0.2-0.1-0.3-0.2-0.4c-0.1-0.1-0.3-0.2-0.6-0.4
		c-0.3-0.1-0.6-0.3-1.1-0.5c-0.7-0.3-1.1-0.5-1.4-0.8c-0.3-0.2-0.5-0.5-0.7-0.8c-0.1-0.3-0.2-0.7-0.2-1.1c0-0.8,0.3-1.3,0.9-1.8
		c0.6-0.4,1.4-0.6,2.5-0.6c1,0,2,0.2,3,0.7l-0.7,1.7c-0.4-0.2-0.8-0.3-1.2-0.5c-0.4-0.1-0.8-0.2-1.1-0.2c-0.7,0-1,0.2-1,0.6
		c0,0.2,0.1,0.4,0.3,0.5c0.2,0.2,0.7,0.4,1.5,0.7c0.7,0.3,1.2,0.5,1.5,0.8s0.5,0.5,0.7,0.8C228.3,529.5,228.4,529.9,228.4,530.3z"/>
	<path id="XMLID_10_" d="M233.8,531.1c0.4,0,0.9-0.1,1.5-0.3v1.7c-0.6,0.3-1.3,0.4-2.1,0.4c-0.9,0-1.6-0.2-2-0.7s-0.6-1.2-0.6-2.1
		v-4.1h-1.1v-1l1.3-0.8l0.7-1.8h1.5v1.8h2.4v1.7h-2.4v4.1c0,0.3,0.1,0.6,0.3,0.7C233.2,531.1,233.5,531.1,233.8,531.1z"/>
	<path id="XMLID_13_" d="M236.8,522.1c0-0.8,0.4-1.1,1.3-1.1c0.8,0,1.3,0.4,1.3,1.1c0,0.4-0.1,0.6-0.3,0.8s-0.5,0.3-0.9,0.3
		C237.3,523.3,236.8,522.9,236.8,522.1z M239.3,532.8h-2.3v-8.5h2.3V532.8z"/>
	<path id="XMLID_22_" d="M245.3,531.1c0.4,0,0.9-0.1,1.5-0.3v1.7c-0.6,0.3-1.3,0.4-2.1,0.4c-0.9,0-1.6-0.2-2-0.7s-0.6-1.2-0.6-2.1
		v-4.1h-1.1v-1l1.3-0.8l0.7-1.8h1.5v1.8h2.4v1.7h-2.4v4.1c0,0.3,0.1,0.6,0.3,0.7C244.8,531.1,245,531.1,245.3,531.1z"/>
	<path id="XMLID_24_" d="M254.5,532.8l-0.3-1.1h-0.1c-0.2,0.4-0.6,0.7-1.1,0.9c-0.5,0.2-1,0.3-1.6,0.3c-1,0-1.8-0.3-2.3-0.8
		c-0.5-0.5-0.8-1.3-0.8-2.3v-5.6h2.3v5c0,0.6,0.1,1.1,0.3,1.4s0.6,0.5,1,0.5c0.7,0,1.1-0.2,1.4-0.7c0.3-0.4,0.4-1.2,0.4-2.2v-4h2.3
		v8.5H254.5z"/>
	<path id="XMLID_26_" d="M262.4,531.1c0.4,0,0.9-0.1,1.5-0.3v1.7c-0.6,0.3-1.3,0.4-2.1,0.4c-0.9,0-1.6-0.2-2-0.7s-0.6-1.2-0.6-2.1
		v-4.1h-1.1v-1l1.3-0.8l0.7-1.8h1.5v1.8h2.4v1.7h-2.4v4.1c0,0.3,0.1,0.6,0.3,0.7C261.8,531.1,262.1,531.1,262.4,531.1z"/>
	<path id="XMLID_28_" d="M273.3,528.6c0,1.4-0.4,2.5-1.1,3.3s-1.8,1.2-3.1,1.2c-0.8,0-1.5-0.2-2.2-0.5c-0.6-0.4-1.1-0.9-1.4-1.5
		s-0.5-1.5-0.5-2.3c0-1.4,0.4-2.5,1.1-3.2c0.7-0.8,1.7-1.2,3.1-1.2c0.8,0,1.5,0.2,2.2,0.5c0.6,0.4,1.1,0.9,1.4,1.5
		C273.1,526.9,273.3,527.7,273.3,528.6z M267.4,528.6c0,0.8,0.1,1.5,0.4,1.9c0.3,0.4,0.7,0.6,1.4,0.6c0.6,0,1.1-0.2,1.3-0.6
		s0.4-1.1,0.4-1.9c0-0.8-0.1-1.5-0.4-1.9s-0.7-0.6-1.4-0.6c-0.6,0-1.1,0.2-1.3,0.6C267.5,527.1,267.4,527.7,267.4,528.6z"/>
	<path id="XMLID_31_" d="M281.8,532.8h-2.3v-11.2h6.4v1.9h-4.1v2.9h3.8v1.9h-3.8V532.8z"/>
	<path id="XMLID_33_" d="M291.7,533c-1.4,0-2.4-0.4-3.2-1.1c-0.8-0.8-1.2-1.8-1.2-3.2c0-1.4,0.4-2.5,1.1-3.3c0.7-0.8,1.7-1.2,3-1.2
		c1.2,0,2.1,0.3,2.8,1s1,1.6,1,2.8v1.1h-5.5c0,0.7,0.2,1.2,0.6,1.5s0.9,0.6,1.5,0.6c0.5,0,1-0.1,1.5-0.2c0.5-0.1,0.9-0.3,1.4-0.5
		v1.8c-0.4,0.2-0.8,0.4-1.3,0.5C292.9,533,292.4,533,291.7,533z M291.4,525.8c-0.5,0-0.9,0.2-1.2,0.5c-0.3,0.3-0.4,0.8-0.5,1.3h3.3
		c0-0.6-0.2-1-0.5-1.3C292.3,526,291.9,525.8,291.4,525.8z"/>
	<path id="XMLID_37_" d="M299.8,533c-1,0-1.8-0.4-2.4-1.2c-0.6-0.8-0.9-1.9-0.9-3.2c0-1.4,0.3-2.5,0.9-3.3c0.6-0.8,1.4-1.2,2.4-1.2
		c1.1,0,1.9,0.4,2.5,1.3h0.1c-0.1-0.6-0.2-1.2-0.2-1.7V521h2.3v11.9h-1.8l-0.5-1.1h-0.1C301.7,532.6,300.9,533,299.8,533z
		 M300.6,531.1c0.6,0,1-0.2,1.3-0.5s0.4-0.9,0.5-1.8v-0.3c0-0.9-0.1-1.6-0.4-2s-0.7-0.6-1.4-0.6c-0.5,0-0.9,0.2-1.2,0.7
		c-0.3,0.4-0.4,1.1-0.4,1.9c0,0.8,0.1,1.5,0.4,1.9C299.6,530.9,300.1,531.1,300.6,531.1z"/>
	<path id="XMLID_60_" d="M310.8,533c-1.4,0-2.4-0.4-3.2-1.1c-0.8-0.8-1.2-1.8-1.2-3.2c0-1.4,0.4-2.5,1.1-3.3c0.7-0.8,1.7-1.2,3-1.2
		c1.2,0,2.1,0.3,2.8,1s1,1.6,1,2.8v1.1h-5.5c0,0.7,0.2,1.2,0.6,1.5s0.9,0.6,1.5,0.6c0.5,0,1-0.1,1.5-0.2c0.5-0.1,0.9-0.3,1.4-0.5
		v1.8c-0.4,0.2-0.8,0.4-1.3,0.5C312.1,533,311.5,533,310.8,533z M310.5,525.8c-0.5,0-0.9,0.2-1.2,0.5c-0.3,0.3-0.4,0.8-0.5,1.3h3.3
		c0-0.6-0.2-1-0.5-1.3C311.4,526,311,525.8,310.5,525.8z"/>
	<path id="XMLID_63_" d="M321,524.2c0.3,0,0.6,0,0.8,0.1l-0.2,2.2c-0.2-0.1-0.4-0.1-0.7-0.1c-0.7,0-1.3,0.2-1.7,0.6
		c-0.4,0.4-0.6,0.9-0.6,1.6v4.3h-2.3v-8.5h1.8l0.3,1.4h0.1c0.3-0.5,0.6-0.9,1.1-1.2C319.9,524.3,320.4,524.2,321,524.2z"/>
	<path id="XMLID_65_" d="M328.7,532.8l-0.5-1.2h-0.1c-0.4,0.5-0.8,0.8-1.2,1c-0.4,0.2-1,0.3-1.6,0.3c-0.8,0-1.5-0.2-1.9-0.7
		c-0.5-0.5-0.7-1.1-0.7-2c0-0.9,0.3-1.6,0.9-2c0.6-0.4,1.6-0.7,2.9-0.7l1.5,0v-0.4c0-0.9-0.4-1.3-1.3-1.3c-0.7,0-1.5,0.2-2.4,0.6
		l-0.8-1.6c1-0.5,2.1-0.8,3.3-0.8c1.1,0,2,0.2,2.6,0.7c0.6,0.5,0.9,1.3,0.9,2.3v5.7H328.7z M328,528.9l-0.9,0
		c-0.7,0-1.2,0.1-1.5,0.4c-0.3,0.2-0.5,0.6-0.5,1c0,0.7,0.4,1,1.1,1c0.5,0,1-0.2,1.3-0.5c0.3-0.3,0.5-0.7,0.5-1.2V528.9z"/>
	<path id="XMLID_68_" d="M335.1,532.8h-2.3V521h2.3V532.8z"/>
	<path id="XMLID_70_" d="M344.1,528.6v4.3h-2.4v-11.2h3.3c1.5,0,2.6,0.3,3.4,0.8c0.7,0.6,1.1,1.4,1.1,2.5c0,0.7-0.2,1.2-0.5,1.8
		c-0.4,0.5-0.9,0.9-1.5,1.2c1.7,2.5,2.8,4.1,3.3,4.9H348l-2.7-4.3H344.1z M344.1,526.6h0.8c0.7,0,1.3-0.1,1.7-0.4
		c0.4-0.2,0.5-0.6,0.5-1.2c0-0.5-0.2-0.9-0.5-1.1s-0.9-0.3-1.7-0.3h-0.7V526.6z"/>
	<path id="XMLID_73_" d="M351.8,522.1c0-0.8,0.4-1.1,1.3-1.1c0.8,0,1.3,0.4,1.3,1.1c0,0.4-0.1,0.6-0.3,0.8s-0.5,0.3-0.9,0.3
		C352.2,523.3,351.8,522.9,351.8,522.1z M354.2,532.8h-2.3v-8.5h2.3V532.8z"/>
	<path id="XMLID_76_" d="M364.4,528.6c0,1.4-0.4,2.5-1.1,3.3s-1.8,1.2-3.1,1.2c-0.8,0-1.5-0.2-2.2-0.5c-0.6-0.4-1.1-0.9-1.4-1.5
		s-0.5-1.5-0.5-2.3c0-1.4,0.4-2.5,1.1-3.2c0.7-0.8,1.7-1.2,3.1-1.2c0.8,0,1.5,0.2,2.2,0.5c0.6,0.4,1.1,0.9,1.4,1.5
		C364.2,526.9,364.4,527.7,364.4,528.6z M358.5,528.6c0,0.8,0.1,1.5,0.4,1.9c0.3,0.4,0.7,0.6,1.4,0.6c0.6,0,1.1-0.2,1.3-0.6
		s0.4-1.1,0.4-1.9c0-0.8-0.1-1.5-0.4-1.9s-0.7-0.6-1.4-0.6c-0.6,0-1.1,0.2-1.3,0.6C358.6,527.1,358.5,527.7,358.5,528.6z"/>
	<path id="XMLID_79_" d="M374.8,526.6h4.4v5.8c-0.7,0.2-1.4,0.4-2,0.5s-1.3,0.1-1.9,0.1c-1.7,0-3-0.5-3.9-1.5
		c-0.9-1-1.3-2.4-1.3-4.3c0-1.8,0.5-3.2,1.5-4.2c1-1,2.5-1.5,4.3-1.5c1.1,0,2.2,0.2,3.3,0.7l-0.8,1.9c-0.8-0.4-1.7-0.6-2.5-0.6
		c-1,0-1.8,0.3-2.5,1s-0.9,1.6-0.9,2.8c0,1.2,0.2,2.1,0.7,2.8c0.5,0.6,1.2,1,2.2,1c0.5,0,1-0.1,1.5-0.2v-2.3h-2.1V526.6z"/>
	<path id="XMLID_81_" d="M386.4,524.2c0.3,0,0.6,0,0.8,0.1l-0.2,2.2c-0.2-0.1-0.4-0.1-0.7-0.1c-0.7,0-1.3,0.2-1.7,0.6
		c-0.4,0.4-0.6,0.9-0.6,1.6v4.3h-2.3v-8.5h1.8l0.3,1.4h0.1c0.3-0.5,0.6-0.9,1.1-1.2C385.4,524.3,385.9,524.2,386.4,524.2z"/>
	<path id="XMLID_83_" d="M394.2,532.8l-0.5-1.2h-0.1c-0.4,0.5-0.8,0.8-1.2,1c-0.4,0.2-1,0.3-1.6,0.3c-0.8,0-1.5-0.2-1.9-0.7
		c-0.5-0.5-0.7-1.1-0.7-2c0-0.9,0.3-1.6,0.9-2c0.6-0.4,1.6-0.7,2.9-0.7l1.5,0v-0.4c0-0.9-0.4-1.3-1.3-1.3c-0.7,0-1.5,0.2-2.4,0.6
		l-0.8-1.6c1-0.5,2.1-0.8,3.3-0.8c1.1,0,2,0.2,2.6,0.7c0.6,0.5,0.9,1.3,0.9,2.3v5.7H394.2z M393.5,528.9l-0.9,0
		c-0.7,0-1.2,0.1-1.5,0.4c-0.3,0.2-0.5,0.6-0.5,1c0,0.7,0.4,1,1.1,1c0.5,0,1-0.2,1.3-0.5c0.3-0.3,0.5-0.7,0.5-1.2V528.9z"/>
	<path id="XMLID_86_" d="M406.1,532.8h-2.3v-5c0-0.6-0.1-1.1-0.3-1.4s-0.6-0.5-1-0.5c-0.7,0-1.1,0.2-1.4,0.7
		c-0.3,0.4-0.4,1.2-0.4,2.2v4h-2.3v-8.5h1.8l0.3,1.1h0.1c0.3-0.4,0.6-0.7,1.1-0.9c0.5-0.2,1-0.3,1.6-0.3c1,0,1.7,0.3,2.3,0.8
		c0.5,0.5,0.8,1.3,0.8,2.3V532.8z"/>
	<path id="XMLID_88_" d="M411.2,533c-1,0-1.8-0.4-2.4-1.2c-0.6-0.8-0.9-1.9-0.9-3.2c0-1.4,0.3-2.5,0.9-3.3c0.6-0.8,1.4-1.2,2.4-1.2
		c1.1,0,1.9,0.4,2.5,1.3h0.1c-0.1-0.6-0.2-1.2-0.2-1.7V521h2.3v11.9h-1.8l-0.5-1.1h-0.1C413.1,532.6,412.3,533,411.2,533z
		 M412,531.1c0.6,0,1-0.2,1.3-0.5s0.4-0.9,0.5-1.8v-0.3c0-0.9-0.1-1.6-0.4-2s-0.7-0.6-1.4-0.6c-0.5,0-0.9,0.2-1.2,0.7
		c-0.3,0.4-0.4,1.1-0.4,1.9c0,0.8,0.1,1.5,0.4,1.9C411,530.9,411.5,531.1,412,531.1z"/>
	<path id="XMLID_91_" d="M422.2,533c-1.4,0-2.4-0.4-3.2-1.1c-0.8-0.8-1.2-1.8-1.2-3.2c0-1.4,0.4-2.5,1.1-3.3c0.7-0.8,1.7-1.2,3-1.2
		c1.2,0,2.1,0.3,2.8,1s1,1.6,1,2.8v1.1h-5.5c0,0.7,0.2,1.2,0.6,1.5s0.9,0.6,1.5,0.6c0.5,0,1-0.1,1.5-0.2c0.5-0.1,0.9-0.3,1.4-0.5
		v1.8c-0.4,0.2-0.8,0.4-1.3,0.5C423.5,533,422.9,533,422.2,533z M421.9,525.8c-0.5,0-0.9,0.2-1.2,0.5c-0.3,0.3-0.4,0.8-0.5,1.3h3.3
		c0-0.6-0.2-1-0.5-1.3C422.8,526,422.4,525.8,421.9,525.8z"/>
	<path id="XMLID_94_" d="M434.3,533c-1,0-1.8-0.4-2.4-1.2c-0.6-0.8-0.9-1.9-0.9-3.2c0-1.4,0.3-2.5,0.9-3.3c0.6-0.8,1.4-1.2,2.4-1.2
		c1.1,0,1.9,0.4,2.5,1.3h0.1c-0.1-0.6-0.2-1.2-0.2-1.7V521h2.3v11.9h-1.8l-0.5-1.1h-0.1C436.2,532.6,435.4,533,434.3,533z
		 M435.2,531.1c0.6,0,1-0.2,1.3-0.5s0.4-0.9,0.5-1.8v-0.3c0-0.9-0.1-1.6-0.4-2s-0.7-0.6-1.4-0.6c-0.5,0-0.9,0.2-1.2,0.7
		c-0.3,0.4-0.4,1.1-0.4,1.9c0,0.8,0.1,1.5,0.4,1.9C434.2,530.9,434.6,531.1,435.2,531.1z"/>
	<path id="XMLID_97_" d="M449.3,528.6c0,1.4-0.4,2.5-1.1,3.3s-1.8,1.2-3.1,1.2c-0.8,0-1.5-0.2-2.2-0.5c-0.6-0.4-1.1-0.9-1.4-1.5
		s-0.5-1.5-0.5-2.3c0-1.4,0.4-2.5,1.1-3.2c0.7-0.8,1.7-1.2,3.1-1.2c0.8,0,1.5,0.2,2.2,0.5c0.6,0.4,1.1,0.9,1.4,1.5
		C449.1,526.9,449.3,527.7,449.3,528.6z M443.4,528.6c0,0.8,0.1,1.5,0.4,1.9c0.3,0.4,0.7,0.6,1.4,0.6c0.6,0,1.1-0.2,1.3-0.6
		s0.4-1.1,0.4-1.9c0-0.8-0.1-1.5-0.4-1.9s-0.7-0.6-1.4-0.6c-0.6,0-1.1,0.2-1.3,0.6C443.5,527.1,443.4,527.7,443.4,528.6z"/>
	<path id="XMLID_100_" d="M462,529.8c0,1-0.4,1.8-1.1,2.4s-1.7,0.9-3,0.9c-1.2,0-2.2-0.2-3.2-0.7v-2.2c0.8,0.3,1.4,0.6,1.9,0.7
		s1,0.2,1.4,0.2c0.5,0,0.9-0.1,1.2-0.3s0.4-0.5,0.4-0.9c0-0.2-0.1-0.4-0.2-0.6c-0.1-0.2-0.3-0.3-0.5-0.5c-0.2-0.2-0.7-0.4-1.4-0.8
		c-0.7-0.3-1.2-0.6-1.5-0.9s-0.6-0.6-0.8-1c-0.2-0.4-0.3-0.8-0.3-1.4c0-1,0.3-1.8,1-2.3s1.6-0.8,2.8-0.8c0.6,0,1.1,0.1,1.7,0.2
		c0.5,0.1,1.1,0.3,1.7,0.6l-0.8,1.8c-0.6-0.2-1.1-0.4-1.5-0.5s-0.8-0.1-1.1-0.1c-0.4,0-0.8,0.1-1,0.3c-0.2,0.2-0.4,0.5-0.4,0.8
		c0,0.2,0,0.4,0.1,0.5s0.3,0.3,0.5,0.5s0.7,0.4,1.5,0.8c1,0.5,1.8,1,2.1,1.5C461.8,528.4,462,529,462,529.8z"/>
	<path id="XMLID_102_" d="M469.9,532.8l-0.3-1.1h-0.1c-0.2,0.4-0.6,0.7-1.1,0.9c-0.5,0.2-1,0.3-1.6,0.3c-1,0-1.8-0.3-2.3-0.8
		c-0.5-0.5-0.8-1.3-0.8-2.3v-5.6h2.3v5c0,0.6,0.1,1.1,0.3,1.4s0.6,0.5,1,0.5c0.7,0,1.1-0.2,1.4-0.7c0.3-0.4,0.4-1.2,0.4-2.2v-4h2.3
		v8.5H469.9z"/>
	<path id="XMLID_104_" d="M476.5,532.8h-2.3V521h2.3V532.8z"/>
</g>
<line id="XMLID_40_" class="st3" x1="149.6" y1="527.2" x2="188" y2="527.2"/>
<line id="XMLID_39_" class="st3" x1="504.3" y1="526.4" x2="542.7" y2="526.4"/>
</svg>
